  0
SECTION
  2
HEADER
  9
$ACADVER
  1
AC1014
  9
$HANDSEED
  5
FFFF
  9
$MEASUREMENT
 70
     1
  0
ENDSEC
  0
SECTION
  2
TABLES
  0
TABLE
  2
VPORT
  5
8
330
0
100
AcDbSymbolTable
 70
     4
  0
VPORT
  5
2E
330
8
100
AcDbSymbolTableRecord
100
AcDbViewportTableRecord
  2
*ACTIVE
 70
     0
 10
0.0
 20
0.0
 11
1.0
 21
1.0
 12
210.0
 22
148.5
 13
0.0
 23
0.0
 14
10.0
 24
10.0
 15
10.0
 25
10.0
 16
0.0
 26
0.0
 36
1.0
 17
0.0
 27
0.0
 37
0.0
 40
341.0
 41
1.24
 42
50.0
 43
0.0
 44
0.0
 50
0.0
 51
0.0
 71
     0
 72
   100
 73
     1
 74
     3
 75
     0
 76
     0
 77
     0
 78
     0
  0
ENDTAB
  0
TABLE
  2
LTYPE
  5
5
330
0
100
AcDbSymbolTable
 70
     1
  0
LTYPE
  5
14
330
5
100
AcDbSymbolTableRecord
100
AcDbLinetypeTableRecord
  2
BYBLOCK
 70
     0
  3

 72
    65
 73
     0
 40
0.0
  0
LTYPE
  5
15
330
5
100
AcDbSymbolTableRecord
100
AcDbLinetypeTableRecord
  2
BYLAYER
 70
     0
  3

 72
    65
 73
     0
 40
0.0
  0
LTYPE
  5
16
330
5
100
AcDbSymbolTableRecord
100
AcDbLinetypeTableRecord
  2
CONTINUOUS
 70
     0
  3
Solid line
 72
    65
 73
     0
 40
0.0
  0
ENDTAB
  0
TABLE
  2
LAYER
  5
2
100
AcDbSymbolTable
 70
2
  0
LAYER
  5
50
100
AcDbSymbolTableRecord
100
AcDbLayerTableRecord
  2
0
 70
0
  6
CONTINUOUS
  0
LAYER
  5
51
100
AcDbSymbolTableRecord
100
AcDbLayerTableRecord
  2
plotclock_beta1
 70
0
  6
CONTINUOUS
  0
ENDTAB
  0
TABLE
  2
STYLE
  5
3
330
0
100
AcDbSymbolTable
 70
     1
  0
STYLE
  5
11
330
3
100
AcDbSymbolTableRecord
100
AcDbTextStyleTableRecord
  2
STANDARD
 70
     0
 40
0.0
 41
1.0
 50
0.0
 71
     0
 42
2.5
  3
txt
  4

  0
ENDTAB
  0
TABLE
  2
VIEW
  5
6
330
0
100
AcDbSymbolTable
 70
     0
  0
ENDTAB
  0
TABLE
  2
UCS
  5
7
330
0
100
AcDbSymbolTable
 70
     0
  0
ENDTAB
  0
TABLE
  2
APPID
  5
9
330
0
100
AcDbSymbolTable
 70
     2
  0
APPID
  5
12
330
9
100
AcDbSymbolTableRecord
100
AcDbRegAppTableRecord
  2
ACAD
 70
     0
  0
ENDTAB
  0
TABLE
  2
DIMSTYLE
  5
A
330
0
100
AcDbSymbolTable
 70
     1
  0
DIMSTYLE
105
27
330
A
100
AcDbSymbolTableRecord
100
AcDbDimStyleTableRecord
  2
ISO-25
 70
     0
  3

  4

  5

  6

  7

 40
1.0
 41
2.5
 42
0.625
 43
3.75
 44
1.25
 45
0.0
 46
0.0
 47
0.0
 48
0.0
140
2.5
141
2.5
142
0.0
143
0.03937007874016
144
1.0
145
0.0
146
1.0
147
0.625
 71
     0
 72
     0
 73
     0
 74
     0
 75
     0
 76
     0
 77
     1
 78
     8
170
     0
171
     3
172
     1
173
     0
174
     0
175
     0
176
     0
177
     0
178
     0
270
     2
271
     2
272
     2
273
     2
274
     3
340
11
275
     0
280
     0
281
     0
282
     0
283
     0
284
     8
285
     0
286
     0
287
     3
288
     0
  0
ENDTAB
  0
TABLE
  2
BLOCK_RECORD
  5
1
330
0
100
AcDbSymbolTable
 70
     1
  0
BLOCK_RECORD
  5
1F
330
1
100
AcDbSymbolTableRecord
100
AcDbBlockTableRecord
  2
*MODEL_SPACE
  0
BLOCK_RECORD
  5
1B
330
1
100
AcDbSymbolTableRecord
100
AcDbBlockTableRecord
  2
*PAPER_SPACE
  0
ENDTAB
  0
ENDSEC
  0
SECTION
  2
BLOCKS
  0
BLOCK
  5
20
330
1F
100
AcDbEntity
  8
0
100
AcDbBlockBegin
  2
*MODEL_SPACE
 70
     0
 10
0.0
 20
0.0
 30
0.0
  3
*MODEL_SPACE
  1

  0
ENDBLK
  5
21
330
1F
100
AcDbEntity
  8
0
100
AcDbBlockEnd
  0
BLOCK
  5
1C
330
1B
100
AcDbEntity
 67
     1
  8
0
100
AcDbBlockBegin
  2
*PAPER_SPACE
  1

  0
ENDBLK
  5
1D
330
1B
100
AcDbEntity
 67
     1
  8
0
100
AcDbBlockEnd
  0
ENDSEC
  0
SECTION
  2
ENTITIES
  0
LWPOLYLINE
  5
100
100
AcDbEntity
  8
plotclock_beta1
 62
7
100
AcDbPolyline
 90
26
 70
0
 10
352.137000
 20
19.921500
 30
0.0
 10
352.859000
 20
19.441500
 30
0.0
 10
353.699000
 20
19.081500
 30
0.0
 10
354.660000
 20
18.960500
 30
0.0
 10
355.500000
 20
19.081500
 30
0.0
 10
356.457000
 20
19.441500
 30
0.0
 10
357.180000
 20
19.921500
 30
0.0
 10
357.660000
 20
20.640500
 30
0.0
 10
358.020000
 20
21.601500
 30
0.0
 10
358.137000
 20
22.441500
 30
0.0
 10
358.020000
 20
23.398500
 30
0.0
 10
357.660000
 20
24.238500
 30
0.0
 10
357.180000
 20
24.960500
 30
0.0
 10
356.457000
 20
25.558500
 30
0.0
 10
355.500000
 20
25.921500
 30
0.0
 10
354.660000
 20
26.038500
 30
0.0
 10
353.699000
 20
25.921500
 30
0.0
 10
352.859000
 20
25.558500
 30
0.0
 10
352.137000
 20
24.960500
 30
0.0
 10
351.539000
 20
24.238500
 30
0.0
 10
351.180000
 20
23.398500
 30
0.0
 10
351.059000
 20
22.441500
 30
0.0
 10
351.180000
 20
21.601500
 30
0.0
 10
351.539000
 20
20.640500
 30
0.0
 10
352.137000
 20
19.921500
 30
0.0
 10
352.137000
 20
19.921500
 30
0.0
  0
LWPOLYLINE
  5
101
100
AcDbEntity
  8
plotclock_beta1
 62
7
100
AcDbPolyline
 90
30
 70
0
 10
367.379000
 20
124.558500
 30
0.0
 10
330.539000
 20
124.558500
 30
0.0
 10
330.539000
 20
189.718500
 30
0.0
 10
367.379000
 20
189.718500
 30
0.0
 10
367.379000
 20
261.960500
 30
0.0
 10
347.578000
 20
261.960500
 30
0.0
 10
347.578000
 20
253.441500
 30
0.0
 10
337.617000
 20
253.441500
 30
0.0
 10
337.617000
 20
242.160500
 30
0.0
 10
341.219000
 20
242.160500
 30
0.0
 10
341.219000
 20
234.480500
 30
0.0
 10
337.617000
 20
234.480500
 30
0.0
 10
337.617000
 20
218.640500
 30
0.0
 10
329.098000
 20
218.640500
 30
0.0
 10
329.098000
 20
234.480500
 30
0.0
 10
325.617000
 20
234.480500
 30
0.0
 10
325.617000
 20
242.160500
 30
0.0
 10
329.098000
 20
242.160500
 30
0.0
 10
329.098000
 20
253.441500
 30
0.0
 10
319.258000
 20
253.441500
 30
0.0
 10
319.258000
 20
261.960500
 30
0.0
 10
302.219000
 20
261.960500
 30
0.0
 10
302.219000
 20
117.480500
 30
0.0
 10
293.699000
 20
117.480500
 30
0.0
 10
293.699000
 20
108.960500
 30
0.0
 10
348.418000
 20
108.960500
 30
0.0
 10
348.418000
 20
12.601500
 30
0.0
 10
367.379000
 20
12.601500
 30
0.0
 10
367.379000
 20
124.558500
 30
0.0
 10
367.379000
 20
124.558500
 30
0.0
  0
LWPOLYLINE
  5
102
100
AcDbEntity
  8
plotclock_beta1
 62
7
100
AcDbPolyline
 90
24
 70
0
 10
349.379000
 20
194.999500
 30
0.0
 10
348.660000
 20
194.281500
 30
0.0
 10
348.059000
 20
194.038500
 30
0.0
 10
347.578000
 20
193.921500
 30
0.0
 10
346.977000
 20
194.038500
 30
0.0
 10
346.500000
 20
194.281500
 30
0.0
 10
346.020000
 20
194.640500
 30
0.0
 10
345.660000
 20
194.999500
 30
0.0
 10
345.539000
 20
195.480500
 30
0.0
 10
345.418000
 20
196.081500
 30
0.0
 10
345.539000
 20
196.679500
 30
0.0
 10
345.660000
 20
197.160500
 30
0.0
 10
346.020000
 20
197.640500
 30
0.0
 10
346.500000
 20
197.878500
 30
0.0
 10
346.977000
 20
198.120500
 30
0.0
 10
347.578000
 20
198.238500
 30
0.0
 10
348.059000
 20
198.120500
 30
0.0
 10
348.660000
 20
197.878500
 30
0.0
 10
349.020000
 20
197.640500
 30
0.0
 10
349.379000
 20
197.160500
 30
0.0
 10
349.617000
 20
196.679500
 30
0.0
 10
349.617000
 20
195.480500
 30
0.0
 10
349.379000
 20
194.999500
 30
0.0
 10
349.379000
 20
194.999500
 30
0.0
  0
LWPOLYLINE
  5
103
100
AcDbEntity
  8
plotclock_beta1
 62
7
100
AcDbPolyline
 90
22
 70
0
 10
348.660000
 20
119.999500
 30
0.0
 10
349.020000
 20
119.640500
 30
0.0
 10
349.379000
 20
119.160500
 30
0.0
 10
349.617000
 20
118.679500
 30
0.0
 10
349.617000
 20
117.601500
 30
0.0
 10
349.379000
 20
117.120500
 30
0.0
 10
349.020000
 20
116.640500
 30
0.0
 10
348.660000
 20
116.281500
 30
0.0
 10
348.059000
 20
116.038500
 30
0.0
 10
346.977000
 20
116.038500
 30
0.0
 10
346.500000
 20
116.281500
 30
0.0
 10
346.020000
 20
116.640500
 30
0.0
 10
345.660000
 20
117.120500
 30
0.0
 10
345.418000
 20
118.081500
 30
0.0
 10
345.539000
 20
118.679500
 30
0.0
 10
345.660000
 20
119.160500
 30
0.0
 10
346.020000
 20
119.640500
 30
0.0
 10
346.500000
 20
119.999500
 30
0.0
 10
346.977000
 20
120.238500
 30
0.0
 10
348.059000
 20
120.238500
 30
0.0
 10
348.660000
 20
119.999500
 30
0.0
 10
348.660000
 20
119.999500
 30
0.0
  0
LWPOLYLINE
  5
104
100
AcDbEntity
  8
plotclock_beta1
 62
7
100
AcDbPolyline
 90
18
 70
0
 10
108.898000
 20
85.199500
 30
0.0
 10
5.457000
 20
85.199500
 30
0.0
 10
5.457000
 20
229.800500
 30
0.0
 10
13.977000
 20
229.800500
 30
0.0
 10
13.977000
 20
238.320500
 30
0.0
 10
193.977000
 20
238.320500
 30
0.0
 10
193.977000
 20
229.800500
 30
0.0
 10
202.379000
 20
229.800500
 30
0.0
 10
202.379000
 20
238.320500
 30
0.0
 10
246.418000
 20
238.320500
 30
0.0
 10
246.418000
 20
181.558500
 30
0.0
 10
203.820000
 20
181.558500
 30
0.0
 10
203.820000
 20
85.199500
 30
0.0
 10
117.418000
 20
85.199500
 30
0.0
 10
117.418000
 20
93.718500
 30
0.0
 10
108.898000
 20
93.718500
 30
0.0
 10
108.898000
 20
85.199500
 30
0.0
 10
108.898000
 20
85.199500
 30
0.0
  0
LWPOLYLINE
  5
105
100
AcDbEntity
  8
plotclock_beta1
 62
7
100
AcDbPolyline
 90
6
 70
0
 10
257.699000
 20
92.281500
 30
0.0
 10
271.977000
 20
92.281500
 30
0.0
 10
271.977000
 20
100.800500
 30
0.0
 10
257.699000
 20
100.800500
 30
0.0
 10
257.699000
 20
92.281500
 30
0.0
 10
257.699000
 20
92.281500
 30
0.0
  0
LWPOLYLINE
  5
106
100
AcDbEntity
  8
plotclock_beta1
 62
7
100
AcDbPolyline
 90
26
 70
0
 10
115.500000
 20
40.558500
 30
0.0
 10
114.777000
 20
41.398500
 30
0.0
 10
113.938000
 20
42.120500
 30
0.0
 10
112.859000
 20
42.480500
 30
0.0
 10
111.777000
 20
42.718500
 30
0.0
 10
110.699000
 20
42.480500
 30
0.0
 10
109.617000
 20
42.120500
 30
0.0
 10
108.777000
 20
41.398500
 30
0.0
 10
108.059000
 20
40.558500
 30
0.0
 10
107.699000
 20
39.480500
 30
0.0
 10
107.457000
 20
38.398500
 30
0.0
 10
107.699000
 20
37.320500
 30
0.0
 10
108.059000
 20
36.238500
 30
0.0
 10
108.777000
 20
35.398500
 30
0.0
 10
109.617000
 20
34.679500
 30
0.0
 10
110.699000
 20
34.320500
 30
0.0
 10
111.777000
 20
34.199500
 30
0.0
 10
112.859000
 20
34.320500
 30
0.0
 10
113.938000
 20
34.679500
 30
0.0
 10
114.777000
 20
35.398500
 30
0.0
 10
115.500000
 20
36.238500
 30
0.0
 10
115.859000
 20
37.320500
 30
0.0
 10
115.977000
 20
38.398500
 30
0.0
 10
115.859000
 20
39.480500
 30
0.0
 10
115.500000
 20
40.558500
 30
0.0
 10
115.500000
 20
40.558500
 30
0.0
  0
LWPOLYLINE
  5
107
100
AcDbEntity
  8
plotclock_beta1
 62
7
100
AcDbPolyline
 90
22
 70
0
 10
4.020000
 20
4.441500
 30
0.0
 10
107.457000
 20
4.441500
 30
0.0
 10
107.457000
 20
24.238500
 30
0.0
 10
115.977000
 20
24.238500
 30
0.0
 10
115.977000
 20
4.441500
 30
0.0
 10
279.059000
 20
4.441500
 30
0.0
 10
279.059000
 20
104.999500
 30
0.0
 10
244.977000
 20
104.999500
 30
0.0
 10
244.977000
 20
69.601500
 30
0.0
 10
201.059000
 20
69.601500
 30
0.0
 10
201.059000
 20
78.120500
 30
0.0
 10
192.539000
 20
78.120500
 30
0.0
 10
192.539000
 20
69.601500
 30
0.0
 10
115.977000
 20
69.601500
 30
0.0
 10
115.977000
 20
52.558500
 30
0.0
 10
107.457000
 20
52.558500
 30
0.0
 10
107.457000
 20
69.601500
 30
0.0
 10
12.539000
 20
69.601500
 30
0.0
 10
12.539000
 20
78.120500
 30
0.0
 10
4.020000
 20
78.120500
 30
0.0
 10
4.020000
 20
4.441500
 30
0.0
 10
4.020000
 20
4.441500
 30
0.0
  0
LWPOLYLINE
  5
108
100
AcDbEntity
  8
plotclock_beta1
 62
7
100
AcDbPolyline
 90
26
 70
0
 10
273.660000
 20
148.199500
 30
0.0
 10
272.938000
 20
148.679500
 30
0.0
 10
272.098000
 20
149.038500
 30
0.0
 10
271.137000
 20
149.160500
 30
0.0
 10
270.297000
 20
149.038500
 30
0.0
 10
269.457000
 20
148.679500
 30
0.0
 10
268.738000
 20
148.199500
 30
0.0
 10
268.137000
 20
147.480500
 30
0.0
 10
267.777000
 20
146.640500
 30
0.0
 10
267.660000
 20
145.679500
 30
0.0
 10
267.777000
 20
144.718500
 30
0.0
 10
268.137000
 20
143.878500
 30
0.0
 10
268.738000
 20
143.160500
 30
0.0
 10
269.457000
 20
142.558500
 30
0.0
 10
270.297000
 20
142.199500
 30
0.0
 10
271.137000
 20
142.081500
 30
0.0
 10
272.098000
 20
142.199500
 30
0.0
 10
272.938000
 20
142.558500
 30
0.0
 10
273.660000
 20
143.160500
 30
0.0
 10
274.258000
 20
143.878500
 30
0.0
 10
274.617000
 20
144.718500
 30
0.0
 10
274.738000
 20
145.679500
 30
0.0
 10
274.617000
 20
146.640500
 30
0.0
 10
274.258000
 20
147.480500
 30
0.0
 10
273.660000
 20
148.199500
 30
0.0
 10
273.660000
 20
148.199500
 30
0.0
  0
LWPOLYLINE
  5
109
100
AcDbEntity
  8
plotclock_beta1
 62
7
100
AcDbPolyline
 90
26
 70
0
 10
267.777000
 20
224.160500
 30
0.0
 10
268.137000
 20
223.320500
 30
0.0
 10
268.738000
 20
222.480500
 30
0.0
 10
269.457000
 20
221.999500
 30
0.0
 10
270.297000
 20
221.640500
 30
0.0
 10
271.137000
 20
221.519500
 30
0.0
 10
272.098000
 20
221.640500
 30
0.0
 10
272.938000
 20
221.999500
 30
0.0
 10
273.660000
 20
222.480500
 30
0.0
 10
274.258000
 20
223.320500
 30
0.0
 10
274.617000
 20
224.160500
 30
0.0
 10
274.738000
 20
224.999500
 30
0.0
 10
274.617000
 20
225.960500
 30
0.0
 10
274.258000
 20
226.800500
 30
0.0
 10
273.660000
 20
227.519500
 30
0.0
 10
272.938000
 20
228.120500
 30
0.0
 10
272.098000
 20
228.480500
 30
0.0
 10
271.137000
 20
228.601500
 30
0.0
 10
270.297000
 20
228.480500
 30
0.0
 10
269.457000
 20
228.120500
 30
0.0
 10
268.738000
 20
227.519500
 30
0.0
 10
268.137000
 20
226.800500
 30
0.0
 10
267.777000
 20
225.960500
 30
0.0
 10
267.660000
 20
224.999500
 30
0.0
 10
267.777000
 20
224.160500
 30
0.0
 10
267.777000
 20
224.160500
 30
0.0
  0
LWPOLYLINE
  5
10a
100
AcDbEntity
  8
plotclock_beta1
 62
7
100
AcDbPolyline
 90
28
 70
0
 10
263.219000
 20
140.999500
 30
0.0
 10
262.258000
 20
143.281500
 30
0.0
 10
261.898000
 20
145.679500
 30
0.0
 10
261.898000
 20
224.999500
 30
0.0
 10
262.258000
 20
227.398500
 30
0.0
 10
263.219000
 20
229.679500
 30
0.0
 10
264.660000
 20
231.601500
 30
0.0
 10
266.578000
 20
233.038500
 30
0.0
 10
268.859000
 20
233.999500
 30
0.0
 10
271.137000
 20
234.238500
 30
0.0
 10
273.539000
 20
233.999500
 30
0.0
 10
275.820000
 20
233.038500
 30
0.0
 10
277.738000
 20
231.601500
 30
0.0
 10
279.180000
 20
229.679500
 30
0.0
 10
280.137000
 20
227.398500
 30
0.0
 10
280.500000
 20
224.999500
 30
0.0
 10
280.500000
 20
145.679500
 30
0.0
 10
280.137000
 20
143.281500
 30
0.0
 10
279.180000
 20
140.999500
 30
0.0
 10
277.738000
 20
139.081500
 30
0.0
 10
275.820000
 20
137.640500
 30
0.0
 10
273.539000
 20
136.679500
 30
0.0
 10
271.137000
 20
136.441500
 30
0.0
 10
268.859000
 20
136.679500
 30
0.0
 10
266.578000
 20
137.640500
 30
0.0
 10
264.660000
 20
139.081500
 30
0.0
 10
263.219000
 20
140.999500
 30
0.0
 10
263.219000
 20
140.999500
 30
0.0
  0
LWPOLYLINE
  5
10b
100
AcDbEntity
  8
plotclock_beta1
 62
7
100
AcDbPolyline
 90
26
 70
0
 10
285.180000
 20
286.199500
 30
0.0
 10
285.660000
 20
285.960500
 30
0.0
 10
286.020000
 20
285.480500
 30
0.0
 10
286.137000
 20
284.999500
 30
0.0
 10
286.258000
 20
284.398500
 30
0.0
 10
286.137000
 20
283.800500
 30
0.0
 10
286.020000
 20
283.320500
 30
0.0
 10
285.660000
 20
282.839500
 30
0.0
 10
285.180000
 20
282.601500
 30
0.0
 10
284.699000
 20
282.359500
 30
0.0
 10
284.098000
 20
282.238500
 30
0.0
 10
283.617000
 20
282.359500
 30
0.0
 10
283.020000
 20
282.601500
 30
0.0
 10
282.660000
 20
282.839500
 30
0.0
 10
282.297000
 20
283.320500
 30
0.0
 10
282.059000
 20
283.800500
 30
0.0
 10
281.938000
 20
284.398500
 30
0.0
 10
282.059000
 20
284.999500
 30
0.0
 10
282.297000
 20
285.480500
 30
0.0
 10
282.660000
 20
285.960500
 30
0.0
 10
283.020000
 20
286.199500
 30
0.0
 10
283.617000
 20
286.441500
 30
0.0
 10
284.098000
 20
286.558500
 30
0.0
 10
284.699000
 20
286.441500
 30
0.0
 10
285.180000
 20
286.199500
 30
0.0
 10
285.180000
 20
286.199500
 30
0.0
  0
LWPOLYLINE
  5
10c
100
AcDbEntity
  8
plotclock_beta1
 62
7
100
AcDbPolyline
 90
24
 70
0
 10
282.660000
 20
363.839500
 30
0.0
 10
282.297000
 20
363.359500
 30
0.0
 10
282.059000
 20
362.878500
 30
0.0
 10
281.938000
 20
362.398500
 30
0.0
 10
282.059000
 20
361.800500
 30
0.0
 10
282.297000
 20
361.320500
 30
0.0
 10
282.660000
 20
360.839500
 30
0.0
 10
283.020000
 20
360.480500
 30
0.0
 10
283.617000
 20
360.238500
 30
0.0
 10
284.699000
 20
360.238500
 30
0.0
 10
285.180000
 20
360.480500
 30
0.0
 10
285.660000
 20
360.839500
 30
0.0
 10
286.020000
 20
361.320500
 30
0.0
 10
286.137000
 20
361.800500
 30
0.0
 10
286.258000
 20
362.398500
 30
0.0
 10
286.137000
 20
362.878500
 30
0.0
 10
286.020000
 20
363.359500
 30
0.0
 10
285.660000
 20
363.839500
 30
0.0
 10
285.180000
 20
364.199500
 30
0.0
 10
284.699000
 20
364.441500
 30
0.0
 10
283.617000
 20
364.441500
 30
0.0
 10
283.020000
 20
364.199500
 30
0.0
 10
282.660000
 20
363.839500
 30
0.0
 10
282.660000
 20
363.839500
 30
0.0
  0
LWPOLYLINE
  5
10d
100
AcDbEntity
  8
plotclock_beta1
 62
7
100
AcDbPolyline
 90
13
 70
0
 10
258.660000
 20
274.441500
 30
0.0
 10
258.660000
 20
273.718500
 30
0.0
 10
301.137000
 20
273.718500
 30
0.0
 10
301.137000
 20
290.761500
 30
0.0
 10
267.059000
 20
290.761500
 30
0.0
 10
267.059000
 20
355.921500
 30
0.0
 10
301.137000
 20
355.921500
 30
0.0
 10
301.137000
 20
371.519500
 30
0.0
 10
258.660000
 20
371.519500
 30
0.0
 10
258.660000
 20
274.441500
 30
0.0
 10
258.297000
 20
273.718500
 30
0.0
 10
258.660000
 20
274.441500
 30
0.0
 10
258.660000
 20
274.441500
 30
0.0
  0
LWPOLYLINE
  5
10e
100
AcDbEntity
  8
plotclock_beta1
 62
7
100
AcDbPolyline
 90
26
 70
0
 10
316.617000
 20
359.999500
 30
0.0
 10
315.418000
 20
359.878500
 30
0.0
 10
314.457000
 20
359.519500
 30
0.0
 10
313.617000
 20
358.800500
 30
0.0
 10
312.898000
 20
357.960500
 30
0.0
 10
312.418000
 20
356.878500
 30
0.0
 10
312.297000
 20
355.800500
 30
0.0
 10
312.418000
 20
354.718500
 30
0.0
 10
312.898000
 20
353.640500
 30
0.0
 10
313.617000
 20
352.800500
 30
0.0
 10
314.457000
 20
352.081500
 30
0.0
 10
315.418000
 20
351.718500
 30
0.0
 10
316.617000
 20
351.601500
 30
0.0
 10
317.699000
 20
351.718500
 30
0.0
 10
318.660000
 20
352.081500
 30
0.0
 10
319.617000
 20
352.800500
 30
0.0
 10
320.219000
 20
353.640500
 30
0.0
 10
320.699000
 20
354.718500
 30
0.0
 10
320.820000
 20
355.800500
 30
0.0
 10
320.699000
 20
356.878500
 30
0.0
 10
320.219000
 20
357.960500
 30
0.0
 10
319.617000
 20
358.800500
 30
0.0
 10
318.660000
 20
359.519500
 30
0.0
 10
317.699000
 20
359.878500
 30
0.0
 10
316.617000
 20
359.999500
 30
0.0
 10
316.617000
 20
359.999500
 30
0.0
  0
LWPOLYLINE
  5
10f
100
AcDbEntity
  8
plotclock_beta1
 62
7
100
AcDbPolyline
 90
26
 70
0
 10
359.820000
 20
304.081500
 30
0.0
 10
360.297000
 20
305.038500
 30
0.0
 10
360.418000
 20
306.238500
 30
0.0
 10
360.297000
 20
307.320500
 30
0.0
 10
359.820000
 20
308.281500
 30
0.0
 10
359.219000
 20
309.238500
 30
0.0
 10
358.258000
 20
309.839500
 30
0.0
 10
357.297000
 20
310.320500
 30
0.0
 10
356.219000
 20
310.441500
 30
0.0
 10
355.137000
 20
310.320500
 30
0.0
 10
354.059000
 20
309.839500
 30
0.0
 10
353.219000
 20
309.238500
 30
0.0
 10
352.500000
 20
308.281500
 30
0.0
 10
352.137000
 20
307.320500
 30
0.0
 10
351.898000
 20
306.238500
 30
0.0
 10
352.137000
 20
305.038500
 30
0.0
 10
352.500000
 20
304.081500
 30
0.0
 10
353.219000
 20
303.238500
 30
0.0
 10
354.059000
 20
302.519500
 30
0.0
 10
355.137000
 20
302.038500
 30
0.0
 10
356.219000
 20
301.921500
 30
0.0
 10
357.297000
 20
302.038500
 30
0.0
 10
358.258000
 20
302.519500
 30
0.0
 10
359.219000
 20
303.238500
 30
0.0
 10
359.820000
 20
304.081500
 30
0.0
 10
359.820000
 20
304.081500
 30
0.0
  0
LWPOLYLINE
  5
110
100
AcDbEntity
  8
plotclock_beta1
 62
7
100
AcDbPolyline
 90
43
 70
0
 10
358.738000
 20
296.640500
 30
0.0
 10
361.137000
 20
297.601500
 30
0.0
 10
363.180000
 20
299.160500
 30
0.0
 10
364.738000
 20
301.199500
 30
0.0
 10
365.820000
 20
303.601500
 30
0.0
 10
366.059000
 20
306.238500
 30
0.0
 10
361.137000
 20
347.281500
 30
0.0
 10
325.137000
 20
347.281500
 30
0.0
 10
325.137000
 20
355.800500
 30
0.0
 10
324.777000
 20
357.960500
 30
0.0
 10
323.938000
 20
359.999500
 30
0.0
 10
322.617000
 20
361.800500
 30
0.0
 10
320.820000
 20
363.120500
 30
0.0
 10
318.777000
 20
363.960500
 30
0.0
 10
316.617000
 20
364.320500
 30
0.0
 10
314.340000
 20
363.960500
 30
0.0
 10
312.297000
 20
363.120500
 30
0.0
 10
310.617000
 20
361.800500
 30
0.0
 10
309.180000
 20
359.999500
 30
0.0
 10
308.340000
 20
357.960500
 30
0.0
 10
308.098000
 20
355.800500
 30
0.0
 10
308.098000
 20
347.281500
 30
0.0
 10
278.219000
 20
347.281500
 30
0.0
 10
278.219000
 20
335.999500
 30
0.0
 10
295.258000
 20
335.999500
 30
0.0
 10
295.258000
 20
326.038500
 30
0.0
 10
306.539000
 20
326.038500
 30
0.0
 10
306.539000
 20
329.519500
 30
0.0
 10
314.219000
 20
329.519500
 30
0.0
 10
314.219000
 20
326.038500
 30
0.0
 10
321.660000
 20
326.038500
 30
0.0
 10
321.660000
 20
317.519500
 30
0.0
 10
314.219000
 20
317.519500
 30
0.0
 10
314.219000
 20
314.038500
 30
0.0
 10
306.539000
 20
314.038500
 30
0.0
 10
306.539000
 20
317.519500
 30
0.0
 10
295.258000
 20
317.519500
 30
0.0
 10
295.258000
 20
307.558500
 30
0.0
 10
278.219000
 20
307.558500
 30
0.0
 10
278.219000
 20
296.281500
 30
0.0
 10
356.219000
 20
296.281500
 30
0.0
 10
358.738000
 20
296.640500
 30
0.0
 10
358.738000
 20
296.640500
 30
0.0
  0
LWPOLYLINE
  5
111
100
AcDbEntity
  8
plotclock_beta1
 62
7
100
AcDbPolyline
 90
26
 70
0
 10
113.219000
 20
276.960500
 30
0.0
 10
112.617000
 20
276.120500
 30
0.0
 10
111.660000
 20
275.398500
 30
0.0
 10
110.699000
 20
275.038500
 30
0.0
 10
109.617000
 20
274.800500
 30
0.0
 10
108.418000
 20
275.038500
 30
0.0
 10
107.457000
 20
275.398500
 30
0.0
 10
106.617000
 20
276.120500
 30
0.0
 10
105.898000
 20
276.960500
 30
0.0
 10
105.418000
 20
278.038500
 30
0.0
 10
105.297000
 20
279.120500
 30
0.0
 10
105.418000
 20
280.199500
 30
0.0
 10
105.898000
 20
281.281500
 30
0.0
 10
106.617000
 20
282.120500
 30
0.0
 10
107.457000
 20
282.839500
 30
0.0
 10
108.418000
 20
283.199500
 30
0.0
 10
109.617000
 20
283.320500
 30
0.0
 10
110.699000
 20
283.199500
 30
0.0
 10
111.660000
 20
282.839500
 30
0.0
 10
112.617000
 20
282.120500
 30
0.0
 10
113.219000
 20
281.281500
 30
0.0
 10
113.699000
 20
280.199500
 30
0.0
 10
113.820000
 20
279.120500
 30
0.0
 10
113.699000
 20
278.038500
 30
0.0
 10
113.219000
 20
276.960500
 30
0.0
 10
113.219000
 20
276.960500
 30
0.0
  0
LWPOLYLINE
  5
112
100
AcDbEntity
  8
plotclock_beta1
 62
7
100
AcDbPolyline
 90
25
 70
0
 10
121.500000
 20
277.558500
 30
0.0
 10
121.258000
 20
278.038500
 30
0.0
 10
121.020000
 20
278.519500
 30
0.0
 10
120.898000
 20
279.120500
 30
0.0
 10
121.020000
 20
279.601500
 30
0.0
 10
121.258000
 20
280.199500
 30
0.0
 10
121.500000
 20
280.558500
 30
0.0
 10
121.977000
 20
280.921500
 30
0.0
 10
122.457000
 20
281.160500
 30
0.0
 10
123.059000
 20
281.281500
 30
0.0
 10
123.539000
 20
281.160500
 30
0.0
 10
124.137000
 20
280.921500
 30
0.0
 10
124.859000
 20
280.199500
 30
0.0
 10
125.098000
 20
279.601500
 30
0.0
 10
125.219000
 20
279.120500
 30
0.0
 10
125.098000
 20
278.519500
 30
0.0
 10
124.859000
 20
278.038500
 30
0.0
 10
124.500000
 20
277.558500
 30
0.0
 10
124.137000
 20
277.199500
 30
0.0
 10
123.539000
 20
277.081500
 30
0.0
 10
123.059000
 20
276.960500
 30
0.0
 10
122.457000
 20
277.081500
 30
0.0
 10
121.977000
 20
277.199500
 30
0.0
 10
121.500000
 20
277.558500
 30
0.0
 10
121.500000
 20
277.558500
 30
0.0
  0
LWPOLYLINE
  5
113
100
AcDbEntity
  8
plotclock_beta1
 62
7
100
AcDbPolyline
 90
24
 70
0
 10
203.098000
 20
278.519500
 30
0.0
 10
202.859000
 20
278.038500
 30
0.0
 10
202.500000
 20
277.558500
 30
0.0
 10
202.020000
 20
277.199500
 30
0.0
 10
201.539000
 20
277.081500
 30
0.0
 10
200.938000
 20
276.960500
 30
0.0
 10
200.457000
 20
277.081500
 30
0.0
 10
199.977000
 20
277.199500
 30
0.0
 10
199.500000
 20
277.558500
 30
0.0
 10
199.137000
 20
278.038500
 30
0.0
 10
198.898000
 20
278.519500
 30
0.0
 10
198.898000
 20
279.601500
 30
0.0
 10
199.137000
 20
280.199500
 30
0.0
 10
199.500000
 20
280.558500
 30
0.0
 10
199.977000
 20
280.921500
 30
0.0
 10
200.457000
 20
281.160500
 30
0.0
 10
200.938000
 20
281.281500
 30
0.0
 10
201.539000
 20
281.160500
 30
0.0
 10
202.020000
 20
280.921500
 30
0.0
 10
202.500000
 20
280.558500
 30
0.0
 10
202.859000
 20
280.199500
 30
0.0
 10
203.098000
 20
279.601500
 30
0.0
 10
203.098000
 20
278.519500
 30
0.0
 10
203.098000
 20
278.519500
 30
0.0
  0
LWPOLYLINE
  5
114
100
AcDbEntity
  8
plotclock_beta1
 62
7
100
AcDbPolyline
 90
23
 70
0
 10
96.180000
 20
277.081500
 30
0.0
 10
95.699000
 20
277.441500
 30
0.0
 10
95.340000
 20
277.921500
 30
0.0
 10
95.219000
 20
278.398500
 30
0.0
 10
95.098000
 20
278.878500
 30
0.0
 10
95.219000
 20
279.480500
 30
0.0
 10
95.340000
 20
279.960500
 30
0.0
 10
95.699000
 20
280.441500
 30
0.0
 10
96.180000
 20
280.800500
 30
0.0
 10
96.660000
 20
281.038500
 30
0.0
 10
97.738000
 20
281.038500
 30
0.0
 10
98.219000
 20
280.800500
 30
0.0
 10
98.699000
 20
280.441500
 30
0.0
 10
99.059000
 20
279.960500
 30
0.0
 10
99.297000
 20
279.480500
 30
0.0
 10
99.297000
 20
278.398500
 30
0.0
 10
99.059000
 20
277.921500
 30
0.0
 10
98.699000
 20
277.441500
 30
0.0
 10
98.219000
 20
277.081500
 30
0.0
 10
97.738000
 20
276.839500
 30
0.0
 10
96.660000
 20
276.839500
 30
0.0
 10
96.180000
 20
277.081500
 30
0.0
 10
96.180000
 20
277.081500
 30
0.0
  0
LWPOLYLINE
  5
115
100
AcDbEntity
  8
plotclock_beta1
 62
7
100
AcDbPolyline
 90
24
 70
0
 10
19.258000
 20
281.038500
 30
0.0
 10
19.859000
 20
281.038500
 30
0.0
 10
20.340000
 20
280.800500
 30
0.0
 10
20.820000
 20
280.441500
 30
0.0
 10
21.297000
 20
279.480500
 30
0.0
 10
21.418000
 20
278.878500
 30
0.0
 10
21.297000
 20
278.398500
 30
0.0
 10
21.059000
 20
277.921500
 30
0.0
 10
20.820000
 20
277.441500
 30
0.0
 10
20.340000
 20
277.081500
 30
0.0
 10
19.859000
 20
276.839500
 30
0.0
 10
18.660000
 20
276.839500
 30
0.0
 10
18.180000
 20
277.081500
 30
0.0
 10
17.699000
 20
277.441500
 30
0.0
 10
17.457000
 20
277.921500
 30
0.0
 10
17.219000
 20
278.398500
 30
0.0
 10
17.098000
 20
278.878500
 30
0.0
 10
17.219000
 20
279.480500
 30
0.0
 10
17.457000
 20
279.960500
 30
0.0
 10
17.699000
 20
280.441500
 30
0.0
 10
18.180000
 20
280.800500
 30
0.0
 10
18.660000
 20
281.038500
 30
0.0
 10
19.258000
 20
281.038500
 30
0.0
 10
19.258000
 20
281.038500
 30
0.0
  0
LWPOLYLINE
  5
116
100
AcDbEntity
  8
plotclock_beta1
 62
7
100
AcDbPolyline
 90
6
 70
0
 10
129.418000
 20
262.081500
 30
0.0
 10
129.418000
 20
296.160500
 30
0.0
 10
194.578000
 20
296.160500
 30
0.0
 10
194.578000
 20
262.081500
 30
0.0
 10
129.418000
 20
262.081500
 30
0.0
 10
129.418000
 20
262.081500
 30
0.0
  0
LWPOLYLINE
  5
117
100
AcDbEntity
  8
plotclock_beta1
 62
7
100
AcDbPolyline
 90
6
 70
0
 10
90.777000
 20
261.960500
 30
0.0
 10
90.777000
 20
295.921500
 30
0.0
 10
25.617000
 20
295.921500
 30
0.0
 10
25.617000
 20
261.960500
 30
0.0
 10
90.777000
 20
261.960500
 30
0.0
 10
90.777000
 20
261.960500
 30
0.0
  0
LWPOLYLINE
  5
118
100
AcDbEntity
  8
plotclock_beta1
 62
7
100
AcDbPolyline
 90
14
 70
0
 10
105.297000
 20
304.441500
 30
0.0
 10
8.578000
 20
304.441500
 30
0.0
 10
8.578000
 20
253.441500
 30
0.0
 10
105.297000
 20
253.441500
 30
0.0
 10
105.297000
 20
264.960500
 30
0.0
 10
113.820000
 20
264.960500
 30
0.0
 10
113.820000
 20
253.441500
 30
0.0
 10
211.617000
 20
253.441500
 30
0.0
 10
211.617000
 20
304.441500
 30
0.0
 10
113.820000
 20
304.441500
 30
0.0
 10
113.820000
 20
293.281500
 30
0.0
 10
105.297000
 20
293.281500
 30
0.0
 10
105.297000
 20
304.441500
 30
0.0
 10
105.297000
 20
304.441500
 30
0.0
  0
LWPOLYLINE
  5
119
100
AcDbEntity
  8
plotclock_beta1
 62
7
100
AcDbPolyline
 90
25
 70
0
 10
108.059000
 20
342.960500
 30
0.0
 10
106.859000
 20
342.960500
 30
0.0
 10
106.379000
 20
343.199500
 30
0.0
 10
105.898000
 20
343.558500
 30
0.0
 10
105.660000
 20
343.921500
 30
0.0
 10
105.418000
 20
344.519500
 30
0.0
 10
105.297000
 20
344.999500
 30
0.0
 10
105.418000
 20
345.601500
 30
0.0
 10
105.660000
 20
346.081500
 30
0.0
 10
105.898000
 20
346.558500
 30
0.0
 10
106.379000
 20
346.921500
 30
0.0
 10
106.859000
 20
347.038500
 30
0.0
 10
107.457000
 20
347.160500
 30
0.0
 10
108.059000
 20
347.038500
 30
0.0
 10
108.539000
 20
346.921500
 30
0.0
 10
109.020000
 20
346.558500
 30
0.0
 10
109.258000
 20
346.081500
 30
0.0
 10
109.500000
 20
345.601500
 30
0.0
 10
109.617000
 20
344.999500
 30
0.0
 10
109.500000
 20
344.519500
 30
0.0
 10
109.258000
 20
343.921500
 30
0.0
 10
109.020000
 20
343.558500
 30
0.0
 10
108.539000
 20
343.199500
 30
0.0
 10
108.059000
 20
342.960500
 30
0.0
 10
108.059000
 20
342.960500
 30
0.0
  0
LWPOLYLINE
  5
11a
100
AcDbEntity
  8
plotclock_beta1
 62
7
100
AcDbPolyline
 90
24
 70
0
 10
28.020000
 20
346.558500
 30
0.0
 10
28.500000
 20
346.921500
 30
0.0
 10
28.977000
 20
347.038500
 30
0.0
 10
29.457000
 20
347.160500
 30
0.0
 10
30.059000
 20
347.038500
 30
0.0
 10
30.539000
 20
346.921500
 30
0.0
 10
31.020000
 20
346.558500
 30
0.0
 10
31.379000
 20
346.081500
 30
0.0
 10
31.500000
 20
345.601500
 30
0.0
 10
31.617000
 20
344.999500
 30
0.0
 10
31.500000
 20
344.519500
 30
0.0
 10
31.379000
 20
343.921500
 30
0.0
 10
31.020000
 20
343.558500
 30
0.0
 10
30.539000
 20
343.199500
 30
0.0
 10
30.059000
 20
342.960500
 30
0.0
 10
28.977000
 20
342.960500
 30
0.0
 10
28.500000
 20
343.199500
 30
0.0
 10
28.020000
 20
343.558500
 30
0.0
 10
27.660000
 20
343.921500
 30
0.0
 10
27.418000
 20
344.519500
 30
0.0
 10
27.418000
 20
345.601500
 30
0.0
 10
27.660000
 20
346.081500
 30
0.0
 10
28.020000
 20
346.558500
 30
0.0
 10
28.020000
 20
346.558500
 30
0.0
  0
LWPOLYLINE
  5
11b
100
AcDbEntity
  8
plotclock_beta1
 62
7
100
AcDbPolyline
 90
26
 70
0
 10
19.617000
 20
347.038500
 30
0.0
 10
18.898000
 20
347.878500
 30
0.0
 10
18.059000
 20
348.601500
 30
0.0
 10
17.098000
 20
348.960500
 30
0.0
 10
16.020000
 20
349.081500
 30
0.0
 10
14.938000
 20
348.960500
 30
0.0
 10
13.977000
 20
348.601500
 30
0.0
 10
13.137000
 20
347.878500
 30
0.0
 10
12.539000
 20
347.038500
 30
0.0
 10
12.059000
 20
346.081500
 30
0.0
 10
11.938000
 20
344.999500
 30
0.0
 10
12.059000
 20
343.921500
 30
0.0
 10
12.539000
 20
342.960500
 30
0.0
 10
13.137000
 20
342.120500
 30
0.0
 10
13.977000
 20
341.519500
 30
0.0
 10
14.938000
 20
341.038500
 30
0.0
 10
16.020000
 20
340.921500
 30
0.0
 10
17.098000
 20
341.038500
 30
0.0
 10
18.059000
 20
341.519500
 30
0.0
 10
18.898000
 20
342.120500
 30
0.0
 10
19.617000
 20
342.960500
 30
0.0
 10
19.977000
 20
343.921500
 30
0.0
 10
20.098000
 20
344.999500
 30
0.0
 10
19.977000
 20
346.081500
 30
0.0
 10
19.617000
 20
347.038500
 30
0.0
 10
19.617000
 20
347.038500
 30
0.0
  0
LWPOLYLINE
  5
11c
100
AcDbEntity
  8
plotclock_beta1
 62
7
100
AcDbPolyline
 90
6
 70
0
 10
101.098000
 20
328.081500
 30
0.0
 10
101.098000
 20
362.038500
 30
0.0
 10
35.938000
 20
362.038500
 30
0.0
 10
35.938000
 20
328.081500
 30
0.0
 10
101.098000
 20
328.081500
 30
0.0
 10
101.098000
 20
328.081500
 30
0.0
  0
LWPOLYLINE
  5
11d
100
AcDbEntity
  8
plotclock_beta1
 62
7
100
AcDbPolyline
 90
10
 70
0
 10
20.340000
 20
359.160500
 30
0.0
 10
20.340000
 20
370.558500
 30
0.0
 10
118.137000
 20
370.558500
 30
0.0
 10
118.137000
 20
319.558500
 30
0.0
 10
20.340000
 20
319.558500
 30
0.0
 10
20.340000
 20
330.839500
 30
0.0
 10
11.820000
 20
330.839500
 30
0.0
 10
11.820000
 20
359.160500
 30
0.0
 10
20.340000
 20
359.160500
 30
0.0
 10
20.340000
 20
359.160500
 30
0.0
  0
LWPOLYLINE
  5
11e
100
AcDbEntity
  8
plotclock_beta1
 62
7
100
AcDbPolyline
 90
53
 70
0
 10
174.660000
 20
364.800500
 30
0.0
 10
180.297000
 20
365.519500
 30
0.0
 10
185.820000
 20
364.800500
 30
0.0
 10
190.977000
 20
362.640500
 30
0.0
 10
195.539000
 20
359.160500
 30
0.0
 10
235.859000
 20
350.038500
 30
0.0
 10
226.500000
 20
350.038500
 30
0.0
 10
226.500000
 20
335.398500
 30
0.0
 10
195.539000
 20
328.679500
 30
0.0
 10
190.977000
 20
325.320500
 30
0.0
 10
185.820000
 20
323.160500
 30
0.0
 10
180.297000
 20
322.441500
 30
0.0
 10
174.660000
 20
323.160500
 30
0.0
 10
169.500000
 20
325.320500
 30
0.0
 10
160.977000
 20
324.718500
 30
0.0
 10
159.297000
 20
322.441500
 30
0.0
 10
165.180000
 20
317.878500
 30
0.0
 10
172.500000
 20
314.878500
 30
0.0
 10
180.297000
 20
313.800500
 30
0.0
 10
188.098000
 20
314.878500
 30
0.0
 10
195.297000
 20
317.878500
 30
0.0
 10
201.297000
 20
322.441500
 30
0.0
 10
226.500000
 20
326.038500
 30
0.0
 10
226.500000
 20
315.601500
 30
0.0
 10
227.938000
 20
315.601500
 30
0.0
 10
227.938000
 20
307.081500
 30
0.0
 10
226.020000
 20
307.081500
 30
0.0
 10
227.938000
 20
302.038500
 30
0.0
 10
233.578000
 20
302.038500
 30
0.0
 10
233.578000
 20
338.038500
 30
0.0
 10
236.457000
 20
338.038500
 30
0.0
 10
236.457000
 20
302.038500
 30
0.0
 10
242.098000
 20
302.038500
 30
0.0
 10
244.137000
 20
307.081500
 30
0.0
 10
242.098000
 20
307.081500
 30
0.0
 10
242.098000
 20
315.601500
 30
0.0
 10
243.539000
 20
315.601500
 30
0.0
 10
243.539000
 20
342.839500
 30
0.0
 10
233.938000
 20
342.839500
 30
0.0
 10
233.938000
 20
344.038500
 30
0.0
 10
243.539000
 20
344.038500
 30
0.0
 10
243.539000
 20
357.601500
 30
0.0
 10
201.297000
 20
365.519500
 30
0.0
 10
195.297000
 20
370.081500
 30
0.0
 10
188.098000
 20
373.081500
 30
0.0
 10
180.297000
 20
374.038500
 30
0.0
 10
172.500000
 20
373.081500
 30
0.0
 10
165.180000
 20
370.081500
 30
0.0
 10
159.297000
 20
365.519500
 30
0.0
 10
160.977000
 20
363.238500
 30
0.0
 10
169.500000
 20
362.640500
 30
0.0
 10
174.660000
 20
364.800500
 30
0.0
 10
174.660000
 20
364.800500
 30
0.0
  0
SPLINE
  5
11f
100
AcDbEntity
  8
plotclock_beta1
 62
7
100
AcDbSpline
 70
8
 71
3
 72
8
 73
4
 74
0
 40
0
 40
0
 40
0
 40
0
 40
1
 40
1
 40
1
 40
1
 10
445.965000
 20
20.605000
 30
0.0
 10
445.715000
 20
17.031000
 30
0.0
 10
443.836000
 20
13.543000
 30
0.0
 10
440.723000
 20
11.699000
 30
0.0
  0
SPLINE
  5
120
100
AcDbEntity
  8
plotclock_beta1
 62
7
100
AcDbSpline
 70
8
 71
3
 72
8
 73
4
 74
0
 40
0
 40
0
 40
0
 40
0
 40
1
 40
1
 40
1
 40
1
 10
440.723000
 20
11.699000
 30
0.0
 10
436.465000
 20
9.043000
 30
0.0
 10
430.250000
 20
9.715000
 30
0.0
 10
426.973000
 20
13.637000
 30
0.0
  0
SPLINE
  5
121
100
AcDbEntity
  8
plotclock_beta1
 62
7
100
AcDbSpline
 70
8
 71
3
 72
8
 73
4
 74
0
 40
0
 40
0
 40
0
 40
0
 40
1
 40
1
 40
1
 40
1
 10
426.973000
 20
13.637000
 30
0.0
 10
424.945000
 20
15.848000
 30
0.0
 10
423.762000
 20
18.887000
 30
0.0
 10
424.094000
 20
21.914000
 30
0.0
  0
SPLINE
  5
122
100
AcDbEntity
  8
plotclock_beta1
 62
7
100
AcDbSpline
 70
8
 71
3
 72
8
 73
4
 74
0
 40
0
 40
0
 40
0
 40
0
 40
1
 40
1
 40
1
 40
1
 10
424.094000
 20
21.914000
 30
0.0
 10
424.137000
 20
23.344000
 30
0.0
 10
424.539000
 20
24.730000
 30
0.0
 10
425.234000
 20
25.965000
 30
0.0
  0
SPLINE
  5
123
100
AcDbEntity
  8
plotclock_beta1
 62
7
100
AcDbSpline
 70
8
 71
3
 72
8
 73
4
 74
0
 40
0
 40
0
 40
0
 40
0
 40
1
 40
1
 40
1
 40
1
 10
425.234000
 20
25.965000
 30
0.0
 10
425.715000
 20
27.469000
 30
0.0
 10
425.500000
 20
29.098000
 30
0.0
 10
425.766000
 20
30.652000
 30
0.0
  0
SPLINE
  5
124
100
AcDbEntity
  8
plotclock_beta1
 62
7
100
AcDbSpline
 70
8
 71
3
 72
8
 73
4
 74
0
 40
0
 40
0
 40
0
 40
0
 40
1
 40
1
 40
1
 40
1
 10
425.766000
 20
30.652000
 30
0.0
 10
426.691000
 20
41.199000
 30
0.0
 10
427.461000
 20
51.769000
 30
0.0
 10
428.602000
 20
62.289000
 30
0.0
  0
SPLINE
  5
125
100
AcDbEntity
  8
plotclock_beta1
 62
7
100
AcDbSpline
 70
8
 71
3
 72
8
 73
4
 74
0
 40
0
 40
0
 40
0
 40
0
 40
1
 40
1
 40
1
 40
1
 10
428.602000
 20
62.289000
 30
0.0
 10
429.324000
 20
65.762000
 30
0.0
 10
433.266000
 20
68.023000
 30
0.0
 10
436.660000
 20
67.062000
 30
0.0
  0
SPLINE
  5
126
100
AcDbEntity
  8
plotclock_beta1
 62
7
100
AcDbSpline
 70
8
 71
3
 72
8
 73
4
 74
0
 40
0
 40
0
 40
0
 40
0
 40
1
 40
1
 40
1
 40
1
 10
436.660000
 20
67.062000
 30
0.0
 10
439.578000
 20
66.340000
 30
0.0
 10
441.668000
 20
63.449000
 30
0.0
 10
441.625000
 20
60.461000
 30
0.0
  0
SPLINE
  5
127
100
AcDbEntity
  8
plotclock_beta1
 62
7
100
AcDbSpline
 70
8
 71
3
 72
8
 73
4
 74
0
 40
0
 40
0
 40
0
 40
0
 40
1
 40
1
 40
1
 40
1
 10
441.625000
 20
60.461000
 30
0.0
 10
442.527000
 20
49.266000
 30
0.0
 10
443.629000
 20
38.090000
 30
0.0
 10
444.598000
 20
26.898000
 30
0.0
  0
SPLINE
  5
128
100
AcDbEntity
  8
plotclock_beta1
 62
7
100
AcDbSpline
 70
8
 71
3
 72
8
 73
4
 74
0
 40
0
 40
0
 40
0
 40
0
 40
1
 40
1
 40
1
 40
1
 10
444.598000
 20
26.898000
 30
0.0
 10
444.652000
 20
25.820000
 30
0.0
 10
445.352000
 20
24.914000
 30
0.0
 10
445.551000
 20
23.851000
 30
0.0
  0
SPLINE
  5
129
100
AcDbEntity
  8
plotclock_beta1
 62
7
100
AcDbSpline
 70
8
 71
3
 72
8
 73
4
 74
0
 40
0
 40
0
 40
0
 40
0
 40
1
 40
1
 40
1
 40
1
 10
445.551000
 20
23.851000
 30
0.0
 10
445.820000
 20
22.793000
 30
0.0
 10
446.027000
 20
21.703000
 30
0.0
 10
445.965000
 20
20.605000
 30
0.0
  0
LWPOLYLINE
  5
12a
100
AcDbEntity
  8
plotclock_beta1
 62
7
100
AcDbPolyline
 90
26
 70
0
 10
433.871000
 20
116.222500
 30
0.0
 10
434.953000
 20
115.980500
 30
0.0
 10
436.031000
 20
116.222500
 30
0.0
 10
437.113000
 20
116.581500
 30
0.0
 10
437.953000
 20
117.300500
 30
0.0
 10
438.672000
 20
118.140500
 30
0.0
 10
439.031000
 20
119.101500
 30
0.0
 10
439.152000
 20
120.179500
 30
0.0
 10
439.031000
 20
121.382500
 30
0.0
 10
438.672000
 20
122.339500
 30
0.0
 10
437.953000
 20
123.179500
 30
0.0
 10
437.113000
 20
123.902500
 30
0.0
 10
436.031000
 20
124.261500
 30
0.0
 10
434.953000
 20
124.499500
 30
0.0
 10
433.871000
 20
124.261500
 30
0.0
 10
432.910000
 20
123.902500
 30
0.0
 10
431.953000
 20
123.179500
 30
0.0
 10
431.352000
 20
122.339500
 30
0.0
 10
430.871000
 20
121.382500
 30
0.0
 10
430.754000
 20
120.179500
 30
0.0
 10
430.871000
 20
119.101500
 30
0.0
 10
431.352000
 20
118.140500
 30
0.0
 10
431.953000
 20
117.300500
 30
0.0
 10
432.910000
 20
116.581500
 30
0.0
 10
433.871000
 20
116.222500
 30
0.0
 10
433.871000
 20
116.222500
 30
0.0
  0
LWPOLYLINE
  5
12b
100
AcDbEntity
  8
plotclock_beta1
 62
7
100
AcDbPolyline
 90
2
 70
0
 10
445.965000
 20
20.605000
 30
0.0
 10
445.965000
 20
20.605000
 30
0.0
  0
LWPOLYLINE
  5
12c
100
AcDbEntity
  8
plotclock_beta1
 62
7
100
AcDbPolyline
 90
24
 70
0
 10
428.469000
 20
21.144500
 30
0.0
 10
428.469000
 20
19.468500
 30
0.0
 10
429.301000
 20
17.800500
 30
0.0
 10
430.418000
 20
16.402500
 30
0.0
 10
431.531000
 20
15.288500
 30
0.0
 10
433.199000
 20
14.734500
 30
0.0
 10
434.875000
 20
14.453500
 30
0.0
 10
436.543000
 20
14.734500
 30
0.0
 10
438.211000
 20
15.288500
 30
0.0
 10
439.609000
 20
16.402500
 30
0.0
 10
440.723000
 20
17.800500
 30
0.0
 10
441.277000
 20
19.468500
 30
0.0
 10
441.559000
 20
21.144500
 30
0.0
 10
441.277000
 20
22.812500
 30
0.0
 10
440.723000
 20
24.480500
 30
0.0
 10
439.609000
 20
25.593500
 30
0.0
 10
438.211000
 20
26.710500
 30
0.0
 10
436.543000
 20
27.542500
 30
0.0
 10
433.199000
 20
27.542500
 30
0.0
 10
431.531000
 20
26.710500
 30
0.0
 10
429.301000
 20
24.480500
 30
0.0
 10
428.469000
 20
22.812500
 30
0.0
 10
428.469000
 20
21.144500
 30
0.0
 10
428.469000
 20
21.144500
 30
0.0
  0
SPLINE
  5
12d
100
AcDbEntity
  8
plotclock_beta1
 62
7
100
AcDbSpline
 70
8
 71
3
 72
8
 73
4
 74
0
 40
0
 40
0
 40
0
 40
0
 40
1
 40
1
 40
1
 40
1
 10
409.773000
 20
22.461000
 30
0.0
 10
409.527000
 20
18.906000
 30
0.0
 10
407.676000
 20
15.430000
 30
0.0
 10
404.574000
 20
13.582000
 30
0.0
  0
SPLINE
  5
12e
100
AcDbEntity
  8
plotclock_beta1
 62
7
100
AcDbSpline
 70
8
 71
3
 72
8
 73
4
 74
0
 40
0
 40
0
 40
0
 40
0
 40
1
 40
1
 40
1
 40
1
 10
404.574000
 20
13.582000
 30
0.0
 10
400.301000
 20
10.883000
 30
0.0
 10
394.105000
 20
11.582000
 30
0.0
 10
390.750000
 20
15.426000
 30
0.0
  0
SPLINE
  5
12f
100
AcDbEntity
  8
plotclock_beta1
 62
7
100
AcDbSpline
 70
8
 71
3
 72
8
 73
4
 74
0
 40
0
 40
0
 40
0
 40
0
 40
1
 40
1
 40
1
 40
1
 10
390.750000
 20
15.426000
 30
0.0
 10
388.910000
 20
17.559000
 30
0.0
 10
387.695000
 20
20.336000
 30
0.0
 10
387.879000
 20
23.195000
 30
0.0
  0
SPLINE
  5
130
100
AcDbEntity
  8
plotclock_beta1
 62
7
100
AcDbSpline
 70
8
 71
3
 72
8
 73
4
 74
0
 40
0
 40
0
 40
0
 40
0
 40
1
 40
1
 40
1
 40
1
 10
387.879000
 20
23.195000
 30
0.0
 10
387.898000
 20
24.601000
 30
0.0
 10
388.082000
 20
26.023000
 30
0.0
 10
388.789000
 20
27.254000
 30
0.0
  0
SPLINE
  5
131
100
AcDbEntity
  8
plotclock_beta1
 62
7
100
AcDbSpline
 70
8
 71
3
 72
8
 73
4
 74
0
 40
0
 40
0
 40
0
 40
0
 40
1
 40
1
 40
1
 40
1
 10
388.789000
 20
27.254000
 30
0.0
 10
389.570000
 20
28.851000
 30
0.0
 10
389.293000
 20
30.711000
 30
0.0
 10
389.559000
 20
32.426000
 30
0.0
  0
SPLINE
  5
132
100
AcDbEntity
  8
plotclock_beta1
 62
7
100
AcDbSpline
 70
8
 71
3
 72
8
 73
4
 74
0
 40
0
 40
0
 40
0
 40
0
 40
1
 40
1
 40
1
 40
1
 10
389.559000
 20
32.426000
 30
0.0
 10
390.504000
 20
42.961000
 30
0.0
 10
391.258000
 20
53.516000
 30
0.0
 10
392.375000
 20
64.035000
 30
0.0
  0
SPLINE
  5
133
100
AcDbEntity
  8
plotclock_beta1
 62
7
100
AcDbSpline
 70
8
 71
3
 72
8
 73
4
 74
0
 40
0
 40
0
 40
0
 40
0
 40
1
 40
1
 40
1
 40
1
 10
392.375000
 20
64.035000
 30
0.0
 10
393.023000
 20
67.262000
 30
0.0
 10
396.375000
 20
69.609000
 30
0.0
 10
399.648000
 20
69.133000
 30
0.0
  0
SPLINE
  5
134
100
AcDbEntity
  8
plotclock_beta1
 62
7
100
AcDbSpline
 70
8
 71
3
 72
8
 73
4
 74
0
 40
0
 40
0
 40
0
 40
0
 40
1
 40
1
 40
1
 40
1
 10
399.648000
 20
69.133000
 30
0.0
 10
402.750000
 20
68.789000
 30
0.0
 10
405.207000
 20
65.973000
 30
0.0
 10
405.383000
 20
62.898000
 30
0.0
  0
SPLINE
  5
135
100
AcDbEntity
  8
plotclock_beta1
 62
7
100
AcDbSpline
 70
8
 71
3
 72
8
 73
4
 74
0
 40
0
 40
0
 40
0
 40
0
 40
1
 40
1
 40
1
 40
1
 10
405.383000
 20
62.898000
 30
0.0
 10
405.766000
 20
57.492000
 30
0.0
 10
406.348000
 20
52.098000
 30
0.0
 10
406.801000
 20
46.691000
 30
0.0
  0
SPLINE
  5
136
100
AcDbEntity
  8
plotclock_beta1
 62
7
100
AcDbSpline
 70
8
 71
3
 72
8
 73
4
 74
0
 40
0
 40
0
 40
0
 40
0
 40
1
 40
1
 40
1
 40
1
 10
406.801000
 20
46.691000
 30
0.0
 10
407.355000
 20
40.496000
 30
0.0
 10
407.910000
 20
34.301000
 30
0.0
 10
408.465000
 20
28.105000
 30
0.0
  0
SPLINE
  5
137
100
AcDbEntity
  8
plotclock_beta1
 62
7
100
AcDbSpline
 70
8
 71
3
 72
8
 73
4
 74
0
 40
0
 40
0
 40
0
 40
0
 40
1
 40
1
 40
1
 40
1
 10
408.465000
 20
28.105000
 30
0.0
 10
409.273000
 20
26.359000
 30
0.0
 10
409.840000
 20
24.422000
 30
0.0
 10
409.773000
 20
22.461000
 30
0.0
  0
LWPOLYLINE
  5
138
100
AcDbEntity
  8
plotclock_beta1
 62
7
100
AcDbPolyline
 90
40
 70
0
 10
439.391000
 20
4.620500
 30
0.0
 10
443.473000
 20
6.300500
 30
0.0
 10
446.953000
 20
9.062500
 30
0.0
 10
449.711000
 20
12.538500
 30
0.0
 10
451.391000
 20
16.620500
 30
0.0
 10
451.992000
 20
21.062500
 30
0.0
 10
451.391000
 20
25.382500
 30
0.0
 10
449.711000
 20
29.581500
 30
0.0
 10
446.953000
 20
33.062500
 30
0.0
 10
446.953000
 20
108.179500
 30
0.0
 10
449.711000
 20
111.781500
 30
0.0
 10
451.391000
 20
115.859500
 30
0.0
 10
451.992000
 20
120.179500
 30
0.0
 10
451.391000
 20
124.620500
 30
0.0
 10
449.711000
 20
128.699500
 30
0.0
 10
446.953000
 20
132.300500
 30
0.0
 10
443.473000
 20
134.941500
 30
0.0
 10
439.391000
 20
136.620500
 30
0.0
 10
434.953000
 20
137.222500
 30
0.0
 10
430.633000
 20
136.620500
 30
0.0
 10
426.434000
 20
134.941500
 30
0.0
 10
422.953000
 20
132.300500
 30
0.0
 10
420.191000
 20
128.699500
 30
0.0
 10
418.512000
 20
124.620500
 30
0.0
 10
417.910000
 20
120.179500
 30
0.0
 10
418.512000
 20
115.859500
 30
0.0
 10
420.191000
 20
111.781500
 30
0.0
 10
422.953000
 20
108.179500
 30
0.0
 10
422.953000
 20
33.062500
 30
0.0
 10
420.191000
 20
29.581500
 30
0.0
 10
418.512000
 20
25.382500
 30
0.0
 10
417.910000
 20
21.062500
 30
0.0
 10
418.512000
 20
16.620500
 30
0.0
 10
420.191000
 20
12.538500
 30
0.0
 10
422.953000
 20
9.062500
 30
0.0
 10
426.434000
 20
6.300500
 30
0.0
 10
430.633000
 20
4.620500
 30
0.0
 10
434.953000
 20
4.019500
 30
0.0
 10
439.391000
 20
4.620500
 30
0.0
 10
439.391000
 20
4.620500
 30
0.0
  0
LWPOLYLINE
  5
139
100
AcDbEntity
  8
plotclock_beta1
 62
7
100
AcDbPolyline
 90
2
 70
0
 10
409.773000
 20
22.461000
 30
0.0
 10
409.773000
 20
22.461000
 30
0.0
  0
LWPOLYLINE
  5
13a
100
AcDbEntity
  8
plotclock_beta1
 62
7
100
AcDbPolyline
 90
25
 70
0
 10
405.078000
 20
22.917500
 30
0.0
 10
404.809000
 20
24.507500
 30
0.0
 10
404.281000
 20
26.101500
 30
0.0
 10
403.215000
 20
27.437500
 30
0.0
 10
401.883000
 20
28.234500
 30
0.0
 10
400.289000
 20
29.031500
 30
0.0
 10
398.688000
 20
29.300500
 30
0.0
 10
397.094000
 20
29.031500
 30
0.0
 10
395.500000
 20
28.234500
 30
0.0
 10
394.164000
 20
27.437500
 30
0.0
 10
393.367000
 20
26.101500
 30
0.0
 10
392.570000
 20
24.507500
 30
0.0
 10
392.570000
 20
21.312500
 30
0.0
 10
393.367000
 20
19.718500
 30
0.0
 10
394.164000
 20
18.386500
 30
0.0
 10
395.500000
 20
17.320500
 30
0.0
 10
397.094000
 20
16.792500
 30
0.0
 10
398.688000
 20
16.523500
 30
0.0
 10
400.289000
 20
16.792500
 30
0.0
 10
401.883000
 20
17.320500
 30
0.0
 10
403.215000
 20
18.386500
 30
0.0
 10
404.281000
 20
19.718500
 30
0.0
 10
404.809000
 20
21.312500
 30
0.0
 10
405.078000
 20
22.917500
 30
0.0
 10
405.078000
 20
22.917500
 30
0.0
  0
LWPOLYLINE
  5
13b
100
AcDbEntity
  8
plotclock_beta1
 62
7
100
AcDbPolyline
 90
26
 70
0
 10
401.285000
 20
124.550500
 30
0.0
 10
400.563000
 20
125.152500
 30
0.0
 10
399.723000
 20
125.511500
 30
0.0
 10
398.762000
 20
125.632500
 30
0.0
 10
397.922000
 20
125.511500
 30
0.0
 10
397.082000
 20
125.152500
 30
0.0
 10
396.363000
 20
124.550500
 30
0.0
 10
395.762000
 20
123.831500
 30
0.0
 10
395.402000
 20
122.992500
 30
0.0
 10
395.285000
 20
122.152500
 30
0.0
 10
395.402000
 20
121.191500
 30
0.0
 10
395.762000
 20
120.351500
 30
0.0
 10
396.363000
 20
119.632500
 30
0.0
 10
397.082000
 20
119.031500
 30
0.0
 10
397.922000
 20
118.792500
 30
0.0
 10
398.762000
 20
118.671500
 30
0.0
 10
399.723000
 20
118.792500
 30
0.0
 10
400.563000
 20
119.031500
 30
0.0
 10
401.285000
 20
119.632500
 30
0.0
 10
401.762000
 20
120.351500
 30
0.0
 10
402.125000
 20
121.191500
 30
0.0
 10
402.242000
 20
122.152500
 30
0.0
 10
402.125000
 20
122.992500
 30
0.0
 10
401.762000
 20
123.831500
 30
0.0
 10
401.285000
 20
124.550500
 30
0.0
 10
401.285000
 20
124.550500
 30
0.0
  0
LWPOLYLINE
  5
13c
100
AcDbEntity
  8
plotclock_beta1
 62
7
100
AcDbPolyline
 90
40
 70
0
 10
394.445000
 20
6.472500
 30
0.0
 10
398.762000
 20
5.870500
 30
0.0
 10
403.203000
 20
6.472500
 30
0.0
 10
407.285000
 20
8.152500
 30
0.0
 10
410.762000
 20
10.913500
 30
0.0
 10
413.523000
 20
14.390500
 30
0.0
 10
415.203000
 20
18.472500
 30
0.0
 10
415.805000
 20
22.913500
 30
0.0
 10
415.203000
 20
27.351500
 30
0.0
 10
413.523000
 20
31.433500
 30
0.0
 10
410.762000
 20
34.913500
 30
0.0
 10
410.762000
 20
110.031500
 30
0.0
 10
413.523000
 20
113.632500
 30
0.0
 10
415.203000
 20
117.710500
 30
0.0
 10
415.805000
 20
122.152500
 30
0.0
 10
415.203000
 20
126.472500
 30
0.0
 10
413.523000
 20
130.671500
 30
0.0
 10
410.762000
 20
134.152500
 30
0.0
 10
407.285000
 20
136.792500
 30
0.0
 10
403.203000
 20
138.593500
 30
0.0
 10
398.762000
 20
139.074500
 30
0.0
 10
394.445000
 20
138.593500
 30
0.0
 10
390.242000
 20
136.792500
 30
0.0
 10
386.762000
 20
134.152500
 30
0.0
 10
384.004000
 20
130.671500
 30
0.0
 10
382.324000
 20
126.472500
 30
0.0
 10
381.723000
 20
122.152500
 30
0.0
 10
382.324000
 20
117.710500
 30
0.0
 10
384.004000
 20
113.632500
 30
0.0
 10
386.762000
 20
110.031500
 30
0.0
 10
386.762000
 20
34.913500
 30
0.0
 10
384.004000
 20
31.433500
 30
0.0
 10
382.324000
 20
27.351500
 30
0.0
 10
381.723000
 20
22.913500
 30
0.0
 10
382.324000
 20
18.472500
 30
0.0
 10
384.004000
 20
14.390500
 30
0.0
 10
386.762000
 20
10.913500
 30
0.0
 10
390.242000
 20
8.152500
 30
0.0
 10
394.445000
 20
6.472500
 30
0.0
 10
394.445000
 20
6.472500
 30
0.0
  0
LWPOLYLINE
  5
13d
100
AcDbEntity
  8
plotclock_beta1
 62
7
100
AcDbPolyline
 90
26
 70
0
 10
397.813000
 20
183.464500
 30
0.0
 10
397.328000
 20
182.745500
 30
0.0
 10
396.969000
 20
181.906500
 30
0.0
 10
396.848000
 20
180.945500
 30
0.0
 10
396.969000
 20
180.105500
 30
0.0
 10
397.328000
 20
179.265500
 30
0.0
 10
397.813000
 20
178.546500
 30
0.0
 10
398.531000
 20
177.945500
 30
0.0
 10
399.367000
 20
177.585500
 30
0.0
 10
400.328000
 20
177.464500
 30
0.0
 10
401.168000
 20
177.585500
 30
0.0
 10
402.008000
 20
177.945500
 30
0.0
 10
402.734000
 20
178.546500
 30
0.0
 10
403.328000
 20
179.265500
 30
0.0
 10
403.691000
 20
180.105500
 30
0.0
 10
403.813000
 20
180.945500
 30
0.0
 10
403.691000
 20
181.906500
 30
0.0
 10
403.328000
 20
182.745500
 30
0.0
 10
402.734000
 20
183.464500
 30
0.0
 10
402.008000
 20
184.066500
 30
0.0
 10
401.168000
 20
184.304500
 30
0.0
 10
400.328000
 20
184.425500
 30
0.0
 10
399.367000
 20
184.304500
 30
0.0
 10
398.531000
 20
184.066500
 30
0.0
 10
397.813000
 20
183.464500
 30
0.0
 10
397.813000
 20
183.464500
 30
0.0
  0
LWPOLYLINE
  5
13e
100
AcDbEntity
  8
plotclock_beta1
 62
7
100
AcDbPolyline
 90
26
 70
0
 10
396.848000
 20
308.507500
 30
0.0
 10
396.969000
 20
307.667500
 30
0.0
 10
397.328000
 20
306.824500
 30
0.0
 10
397.813000
 20
306.105500
 30
0.0
 10
398.531000
 20
305.507500
 30
0.0
 10
399.367000
 20
305.144500
 30
0.0
 10
400.328000
 20
305.027500
 30
0.0
 10
401.168000
 20
305.144500
 30
0.0
 10
402.008000
 20
305.507500
 30
0.0
 10
402.734000
 20
306.105500
 30
0.0
 10
403.328000
 20
306.824500
 30
0.0
 10
403.691000
 20
307.667500
 30
0.0
 10
403.813000
 20
308.507500
 30
0.0
 10
403.691000
 20
309.464500
 30
0.0
 10
403.328000
 20
310.304500
 30
0.0
 10
402.734000
 20
311.027500
 30
0.0
 10
402.008000
 20
311.624500
 30
0.0
 10
401.168000
 20
311.867500
 30
0.0
 10
400.328000
 20
311.984500
 30
0.0
 10
399.367000
 20
311.867500
 30
0.0
 10
398.531000
 20
311.624500
 30
0.0
 10
397.813000
 20
311.027500
 30
0.0
 10
397.328000
 20
310.304500
 30
0.0
 10
396.969000
 20
309.464500
 30
0.0
 10
396.848000
 20
308.507500
 30
0.0
 10
396.848000
 20
308.507500
 30
0.0
  0
LWPOLYLINE
  5
13f
100
AcDbEntity
  8
plotclock_beta1
 62
7
100
AcDbPolyline
 90
26
 70
0
 10
439.508000
 20
200.058500
 30
0.0
 10
438.910000
 20
200.898500
 30
0.0
 10
437.949000
 20
201.620500
 30
0.0
 10
436.988000
 20
201.980500
 30
0.0
 10
435.910000
 20
202.218500
 30
0.0
 10
434.824000
 20
201.980500
 30
0.0
 10
433.746000
 20
201.620500
 30
0.0
 10
432.910000
 20
200.898500
 30
0.0
 10
432.305000
 20
200.058500
 30
0.0
 10
431.824000
 20
199.101500
 30
0.0
 10
431.707000
 20
198.019500
 30
0.0
 10
431.824000
 20
196.820500
 30
0.0
 10
432.305000
 20
195.859500
 30
0.0
 10
432.910000
 20
195.019500
 30
0.0
 10
433.746000
 20
194.300500
 30
0.0
 10
434.824000
 20
193.941500
 30
0.0
 10
435.910000
 20
193.699500
 30
0.0
 10
436.988000
 20
193.941500
 30
0.0
 10
437.949000
 20
194.300500
 30
0.0
 10
438.910000
 20
195.019500
 30
0.0
 10
439.508000
 20
195.859500
 30
0.0
 10
439.988000
 20
196.820500
 30
0.0
 10
440.109000
 20
198.019500
 30
0.0
 10
439.988000
 20
199.101500
 30
0.0
 10
439.508000
 20
200.058500
 30
0.0
 10
439.508000
 20
200.058500
 30
0.0
  0
LWPOLYLINE
  5
140
100
AcDbEntity
  8
plotclock_beta1
 62
7
100
AcDbPolyline
 90
26
 70
0
 10
432.305000
 20
323.421500
 30
0.0
 10
432.910000
 20
322.581500
 30
0.0
 10
433.746000
 20
321.859500
 30
0.0
 10
434.824000
 20
321.499500
 30
0.0
 10
435.910000
 20
321.261500
 30
0.0
 10
436.988000
 20
321.499500
 30
0.0
 10
437.949000
 20
321.859500
 30
0.0
 10
438.910000
 20
322.581500
 30
0.0
 10
439.508000
 20
323.421500
 30
0.0
 10
439.988000
 20
324.378500
 30
0.0
 10
440.109000
 20
325.581500
 30
0.0
 10
439.988000
 20
326.660500
 30
0.0
 10
439.508000
 20
327.620500
 30
0.0
 10
438.910000
 20
328.460500
 30
0.0
 10
437.949000
 20
329.179500
 30
0.0
 10
436.988000
 20
329.538500
 30
0.0
 10
435.910000
 20
329.781500
 30
0.0
 10
434.824000
 20
329.538500
 30
0.0
 10
433.746000
 20
329.179500
 30
0.0
 10
432.910000
 20
328.460500
 30
0.0
 10
432.305000
 20
327.620500
 30
0.0
 10
431.824000
 20
326.660500
 30
0.0
 10
431.707000
 20
325.581500
 30
0.0
 10
431.824000
 20
324.378500
 30
0.0
 10
432.305000
 20
323.421500
 30
0.0
 10
432.305000
 20
323.421500
 30
0.0
  0
LWPOLYLINE
  5
141
100
AcDbEntity
  8
plotclock_beta1
 62
7
100
AcDbPolyline
 90
78
 70
0
 10
444.426000
 20
183.261500
 30
0.0
 10
447.910000
 20
185.898500
 30
0.0
 10
450.664000
 20
189.499500
 30
0.0
 10
452.348000
 20
193.581500
 30
0.0
 10
452.949000
 20
198.019500
 30
0.0
 10
452.348000
 20
202.339500
 30
0.0
 10
450.664000
 20
206.421500
 30
0.0
 10
447.910000
 20
210.019500
 30
0.0
 10
447.910000
 20
313.460500
 30
0.0
 10
450.664000
 20
317.058500
 30
0.0
 10
452.348000
 20
321.140500
 30
0.0
 10
452.949000
 20
325.581500
 30
0.0
 10
452.348000
 20
329.898500
 30
0.0
 10
450.664000
 20
333.980500
 30
0.0
 10
447.910000
 20
337.581500
 30
0.0
 10
444.426000
 20
340.218500
 30
0.0
 10
440.348000
 20
341.898500
 30
0.0
 10
435.910000
 20
342.499500
 30
0.0
 10
431.465000
 20
341.898500
 30
0.0
 10
428.465000
 20
344.538500
 30
0.0
 10
429.305000
 20
346.460500
 30
0.0
 10
430.031000
 20
351.859500
 30
0.0
 10
429.305000
 20
357.140500
 30
0.0
 10
427.266000
 20
362.179500
 30
0.0
 10
423.910000
 20
366.499500
 30
0.0
 10
419.586000
 20
369.859500
 30
0.0
 10
414.547000
 20
371.898500
 30
0.0
 10
409.266000
 20
372.620500
 30
0.0
 10
403.867000
 20
371.898500
 30
0.0
 10
406.746000
 20
360.859500
 30
0.0
 10
409.266000
 20
361.218500
 30
0.0
 10
411.664000
 20
360.859500
 30
0.0
 10
413.949000
 20
359.898500
 30
0.0
 10
415.867000
 20
358.460500
 30
0.0
 10
417.305000
 20
356.538500
 30
0.0
 10
418.266000
 20
354.261500
 30
0.0
 10
418.625000
 20
351.859500
 30
0.0
 10
418.266000
 20
349.339500
 30
0.0
 10
417.305000
 20
347.179500
 30
0.0
 10
415.867000
 20
345.140500
 30
0.0
 10
413.949000
 20
343.699500
 30
0.0
 10
411.664000
 20
342.742500
 30
0.0
 10
409.266000
 20
342.499500
 30
0.0
 10
406.746000
 20
342.742500
 30
0.0
 10
404.586000
 20
343.699500
 30
0.0
 10
402.547000
 20
345.140500
 30
0.0
 10
401.109000
 20
347.179500
 30
0.0
 10
400.148000
 20
349.339500
 30
0.0
 10
399.910000
 20
351.859500
 30
0.0
 10
400.148000
 20
354.261500
 30
0.0
 10
389.109000
 20
357.140500
 30
0.0
 10
388.387000
 20
351.859500
 30
0.0
 10
389.109000
 20
346.460500
 30
0.0
 10
391.266000
 20
341.421500
 30
0.0
 10
394.508000
 20
337.101500
 30
0.0
 10
398.824000
 20
333.859500
 30
0.0
 10
403.867000
 20
331.699500
 30
0.0
 10
409.266000
 20
330.980500
 30
0.0
 10
414.547000
 20
331.699500
 30
0.0
 10
416.465000
 20
332.538500
 30
0.0
 10
419.465000
 20
329.898500
 30
0.0
 10
418.867000
 20
325.581500
 30
0.0
 10
419.465000
 20
321.140500
 30
0.0
 10
421.148000
 20
317.058500
 30
0.0
 10
423.910000
 20
313.460500
 30
0.0
 10
423.910000
 20
210.019500
 30
0.0
 10
421.148000
 20
206.421500
 30
0.0
 10
419.465000
 20
202.339500
 30
0.0
 10
418.867000
 20
198.019500
 30
0.0
 10
419.465000
 20
193.581500
 30
0.0
 10
421.148000
 20
189.499500
 30
0.0
 10
423.910000
 20
185.898500
 30
0.0
 10
427.387000
 20
183.261500
 30
0.0
 10
431.465000
 20
181.581500
 30
0.0
 10
435.910000
 20
180.980500
 30
0.0
 10
440.348000
 20
181.581500
 30
0.0
 10
444.426000
 20
183.261500
 30
0.0
 10
444.426000
 20
183.261500
 30
0.0
  0
LWPOLYLINE
  5
142
100
AcDbEntity
  8
plotclock_beta1
 62
7
100
AcDbPolyline
 90
40
 70
0
 10
388.328000
 20
168.945500
 30
0.0
 10
391.813000
 20
166.304500
 30
0.0
 10
395.891000
 20
164.507500
 30
0.0
 10
400.328000
 20
164.027500
 30
0.0
 10
404.773000
 20
164.507500
 30
0.0
 10
408.848000
 20
166.304500
 30
0.0
 10
412.328000
 20
168.945500
 30
0.0
 10
415.090000
 20
172.425500
 30
0.0
 10
416.773000
 20
176.624500
 30
0.0
 10
417.367000
 20
180.945500
 30
0.0
 10
416.773000
 20
185.386500
 30
0.0
 10
415.090000
 20
189.464500
 30
0.0
 10
412.328000
 20
192.945500
 30
0.0
 10
412.328000
 20
296.507500
 30
0.0
 10
415.090000
 20
299.984500
 30
0.0
 10
416.773000
 20
304.187500
 30
0.0
 10
417.367000
 20
308.507500
 30
0.0
 10
416.773000
 20
312.945500
 30
0.0
 10
415.090000
 20
317.027500
 30
0.0
 10
412.328000
 20
320.507500
 30
0.0
 10
408.848000
 20
323.265500
 30
0.0
 10
404.773000
 20
324.945500
 30
0.0
 10
400.328000
 20
325.546500
 30
0.0
 10
395.891000
 20
324.945500
 30
0.0
 10
391.813000
 20
323.265500
 30
0.0
 10
388.328000
 20
320.507500
 30
0.0
 10
385.574000
 20
317.027500
 30
0.0
 10
383.891000
 20
312.945500
 30
0.0
 10
383.289000
 20
308.507500
 30
0.0
 10
383.891000
 20
304.187500
 30
0.0
 10
385.574000
 20
299.984500
 30
0.0
 10
388.328000
 20
296.507500
 30
0.0
 10
388.328000
 20
192.945500
 30
0.0
 10
385.574000
 20
189.464500
 30
0.0
 10
383.891000
 20
185.386500
 30
0.0
 10
383.289000
 20
180.945500
 30
0.0
 10
383.891000
 20
176.624500
 30
0.0
 10
385.574000
 20
172.425500
 30
0.0
 10
388.328000
 20
168.945500
 30
0.0
 10
388.328000
 20
168.945500
 30
0.0
  0
ENDSEC
  0
SECTION
  2
OBJECTS
  0
DICTIONARY
  5
C
330
0
100
AcDbDictionary
  3
ACAD_GROUP
350
D
  3
ACAD_MLINESTYLE
350
17
  0
DICTIONARY
  5
D
330
C
100
AcDbDictionary
  0
DICTIONARY
  5
1A
330
C
100
AcDbDictionary
  0
DICTIONARY
  5
17
330
C
100
AcDbDictionary
  3
STANDARD
350
18
  0
DICTIONARY
  5
19
330
C
100
AcDbDictionary
  0
ENDSEC
  0
EOF
